<?xml version="1.0" standalone="no"?>
<!DOCTYPE svg PUBLIC "-//W3C//DTD SVG 20010904//EN"
 "http://www.w3.org/TR/2001/REC-SVG-20010904/DTD/svg10.dtd">
<svg version="1.0" xmlns="http://www.w3.org/2000/svg"
 width="2307.000000pt" height="2307.000000pt" viewBox="0 0 2307.000000 2307.000000"
 preserveAspectRatio="xMidYMid meet">
<metadata>
Created by potrace 1.11, written by Peter Selinger 2001-2013
</metadata>
<g transform="translate(0.000000,2307.000000) scale(0.100000,-0.100000)"
fill="#000000" stroke="none">
<path d="M10928 17677 c-9 -7 -26 -19 -38 -27 -13 -8 -35 -24 -49 -36 -14 -11
-60 -44 -101 -74 -265 -190 -588 -422 -660 -473 -47 -34 -87 -63 -90 -66 -3
-3 -27 -22 -55 -40 -27 -19 -84 -60 -126 -90 -164 -120 -257 -187 -624 -451
-209 -150 -432 -311 -495 -357 -63 -46 -124 -90 -135 -97 -43 -31 -411 -296
-431 -311 -51 -38 -416 -300 -482 -347 -40 -28 -71 -52 -69 -54 3 -4 124 -11
326 -19 74 -3 137 -8 140 -10 4 -2 6 -327 4 -722 -1 -395 -3 -1233 -5 -1863
l-3 -1145 442 0 c287 0 444 3 446 10 1 5 2 474 2 1040 l-1 1030 -424 -3 c-233
-2 -429 -6 -434 -9 -5 -3 -6 -2 -3 4 4 5 71 54 149 107 79 54 172 118 208 143
36 25 144 99 240 166 96 66 196 136 223 154 78 55 916 635 1002 694 44 30 103
71 130 90 49 35 246 172 394 274 71 49 139 96 347 240 l82 57 268 -196 c148
-107 274 -199 279 -203 6 -5 75 -55 155 -113 80 -57 192 -139 250 -181 58 -43
186 -136 285 -208 99 -72 189 -137 200 -145 11 -8 207 -150 435 -316 228 -166
425 -309 437 -318 11 -9 78 -57 147 -107 69 -49 126 -92 126 -95 0 -3 -142 -5
-315 -4 l-315 1 0 -1056 0 -1056 1073 1 c589 1 1075 2 1079 3 3 0 7 238 8 529
1 290 4 905 6 1367 3 462 6 993 7 1180 l2 340 267 0 267 0 -22 20 c-12 11 -36
29 -54 40 -17 11 -98 67 -180 125 -81 58 -161 113 -178 124 -16 10 -32 22 -35
25 -3 4 -48 36 -100 72 -52 36 -219 153 -370 259 -151 106 -304 214 -340 239
-36 25 -141 99 -235 165 -235 165 -254 178 -570 399 -154 108 -285 199 -290
204 -22 18 -134 93 -138 93 -3 0 -44 -55 -93 -122 -48 -68 -95 -133 -105 -145
l-16 -22 -184 131 c-101 71 -231 164 -289 205 -58 41 -199 142 -315 224 -115
82 -244 173 -285 201 -41 29 -79 56 -85 60 -8 7 -305 217 -423 300 -18 13 -39
28 -45 33 -7 6 -26 19 -42 31 -17 11 -59 41 -95 66 -54 38 -68 44 -82 35z"/>
<path d="M4773 10974 c-3 -9 -7 -644 -7 -1410 l-1 -1394 438 0 c409 0 437 1
437 18 0 9 0 243 0 520 l0 502 293 1 c160 1 317 3 347 5 200 14 408 78 540
167 164 112 288 314 324 532 18 104 15 348 -4 435 -77 353 -297 551 -680 614
-67 11 -251 14 -874 15 -434 1 -793 4 -797 7 -5 3 -12 -2 -16 -12z m1318 -587
c97 -32 149 -72 188 -148 21 -39 40 -130 35 -165 -15 -101 -43 -156 -107 -207
-81 -65 -185 -87 -407 -87 l-158 0 -1 315 -1 315 202 -4 c143 -3 217 -9 249
-19z"/>
<path d="M7628 10973 c-2 -5 -3 -636 -3 -1403 l1 -1395 437 -3 437 -2 0 570 0
571 83 -5 c135 -8 202 -40 275 -133 18 -23 110 -183 203 -355 94 -172 183
-336 198 -363 15 -28 56 -103 91 -168 l63 -117 493 0 493 0 -33 63 c-41 76
-145 277 -239 457 -66 128 -147 281 -171 325 -19 34 -103 144 -157 206 -66 76
-119 113 -221 154 -84 33 -86 38 -28 50 307 62 550 307 609 615 10 54 8 292
-3 339 -49 208 -146 355 -304 458 -69 44 -126 68 -223 93 -170 44 -259 47
-1151 49 -466 1 -848 -2 -850 -6z m1372 -567 c110 -9 190 -41 238 -96 44 -51
68 -165 50 -244 -19 -87 -106 -174 -188 -189 -14 -3 -63 -12 -109 -21 -59 -11
-142 -16 -287 -16 l-204 0 0 284 c0 180 4 286 10 288 16 5 408 1 490 -6z"/>
<path d="M10714 9575 l0 -1405 437 0 437 0 0 1405 0 1405 -437 0 -438 0 1
-1405z"/>
<path d="M12203 9575 l0 -1405 356 0 356 0 0 1050 c0 578 2 1050 6 1050 4 0
90 -323 114 -430 2 -8 13 -49 24 -90 11 -41 49 -190 85 -330 35 -140 95 -372
132 -515 36 -143 70 -276 75 -295 4 -19 31 -126 60 -237 l51 -203 324 0 323 0
10 38 c25 95 113 439 116 452 2 8 29 114 60 235 32 121 59 231 62 244 2 14 6
28 9 33 3 4 7 16 9 25 2 10 13 56 25 103 12 47 23 93 25 102 2 10 18 71 35
135 18 65 61 233 96 373 36 140 69 269 74 285 5 17 11 43 14 59 3 16 8 31 11
34 3 3 5 -472 5 -1056 l0 -1062 355 0 c331 0 355 1 356 18 0 23 0 2717 0 2760
l-1 32 -572 -2 -572 -3 -32 -125 c-17 -69 -70 -276 -117 -460 -48 -184 -130
-504 -182 -710 -53 -206 -98 -382 -101 -390 -3 -8 -30 80 -59 195 -30 116 -72
280 -94 365 -82 322 -205 801 -245 960 l-42 165 -575 3 -576 2 0 -1405z"/>
<path d="M15929 10976 c-3 -3 -3 -2697 0 -2783 l1 -23 1185 0 1185 0 0 28 c0
15 1 157 1 317 l1 290 -738 1 c-407 1 -744 2 -751 3 -9 1 -12 71 -12 276 l0
275 675 0 674 0 -2 287 -3 286 -672 0 -672 0 0 224 0 223 728 0 728 0 1 300 1
300 -1163 0 c-639 0 -1165 -2 -1167 -4z"/>
<path d="M4563 7812 l-81 -3 1 -87 2 -87 6993 -1 c4666 0 6995 3 6999 10 4 5
7 45 7 88 l1 78 -75 0 c-559 2 -13788 4 -13847 2z"/>
<path d="M8135 6449 c-74 -13 -90 -17 -132 -32 -208 -76 -273 -305 -124 -440
57 -52 162 -99 271 -123 19 -4 40 -9 45 -10 114 -27 155 -38 187 -55 73 -37
81 -114 17 -160 -63 -45 -211 -29 -261 28 -16 18 -48 84 -48 100 0 12 -327 6
-334 -6 -7 -12 26 -117 50 -158 81 -139 217 -192 483 -191 191 1 308 38 398
124 83 79 116 201 85 310 -16 56 -79 124 -149 161 -70 38 -214 82 -318 99 -52
8 -163 43 -169 52 -12 20 -13 59 -1 75 32 44 147 55 212 20 19 -10 42 -36 56
-63 l23 -45 85 4 c46 2 107 5 134 6 28 2 63 4 78 4 27 1 28 3 22 34 -29 136
-129 226 -286 258 -64 13 -268 18 -324 8z"/>
<path d="M9978 6455 c-2 -2 -28 -6 -58 -9 -106 -13 -204 -76 -236 -153 -20
-47 -21 -128 -1 -174 8 -19 30 -55 50 -81 l37 -48 -70 -35 c-158 -79 -225
-191 -195 -325 19 -88 105 -167 219 -203 61 -19 93 -22 231 -22 176 1 240 12
354 65 l63 30 32 -19 c17 -10 58 -33 91 -51 l59 -32 84 87 84 87 -86 52 -85
52 24 41 c36 64 66 150 52 150 -7 1 -59 10 -117 22 -58 11 -108 21 -112 21 -5
0 -17 -20 -29 -45 l-21 -45 -42 33 c-143 112 -139 100 -53 156 92 61 133 109
148 178 16 70 1 120 -52 174 -42 43 -79 62 -156 80 -43 9 -208 20 -215 14z
m159 -187 c15 -18 18 -48 9 -76 -8 -25 -91 -92 -113 -92 -14 0 -58 46 -80 84
-18 31 -16 52 10 82 41 47 137 48 174 2z m-150 -484 c36 -31 92 -75 124 -99
67 -49 66 -52 -28 -84 -77 -26 -135 -26 -189 -2 -55 25 -84 64 -84 114 0 35 6
46 45 84 25 24 50 43 55 43 6 0 40 -25 77 -56z"/>
<path d="M17708 6455 c-2 -1 -29 -5 -60 -9 -117 -12 -232 -64 -311 -140 -96
-91 -138 -196 -143 -356 -5 -169 31 -279 125 -382 114 -124 251 -170 496 -164
160 4 230 21 330 81 139 84 209 211 222 399 11 178 -32 313 -136 416 -32 33
-70 65 -83 70 -12 6 -35 18 -50 26 -51 28 -182 55 -285 58 -56 2 -103 3 -105
1z m195 -267 c83 -46 120 -141 113 -289 -5 -103 -23 -156 -68 -201 -42 -42
-97 -61 -172 -59 -151 3 -224 85 -231 259 -7 183 46 281 170 313 50 13 143 2
188 -23z"/>
<path d="M22457 6454 c-1 -1 -28 -5 -60 -8 -177 -21 -310 -129 -322 -264 -15
-167 112 -278 390 -338 186 -39 238 -66 251 -130 4 -24 0 -37 -21 -62 -53 -63
-182 -69 -261 -12 -29 21 -64 80 -64 109 l0 23 -148 -7 c-179 -8 -185 -8 -190
-24 -7 -21 28 -117 60 -165 82 -125 196 -170 443 -175 204 -4 347 41 436 136
63 68 84 121 84 213 0 168 -101 257 -367 320 -230 55 -253 62 -270 77 -38 34
-11 96 47 112 45 12 123 4 159 -17 16 -10 40 -37 53 -62 l24 -45 82 4 c45 2
105 5 132 6 28 2 62 4 78 4 33 1 35 19 7 94 -39 103 -133 172 -271 198 -53 9
-264 20 -272 13z"/>
<path d="M0 5928 l0 -513 337 1 c186 1 354 4 373 7 19 3 58 9 85 12 150 20
255 130 255 270 0 115 -70 209 -177 238 -24 6 -43 14 -43 17 0 3 18 14 40 24
50 22 107 88 121 140 14 51 4 130 -22 176 -30 51 -100 100 -175 121 -57 16
-110 18 -430 19 l-364 0 0 -512z m606 286 c72 -34 56 -153 -24 -169 -20 -3
-146 -7 -202 -6 l-26 1 0 98 0 97 109 -2 c75 -2 119 -8 143 -19z m35 -389 c56
-26 76 -87 43 -133 -30 -43 -66 -53 -202 -55 l-127 -2 -1 100 c0 55 1 102 2
105 1 3 57 4 125 3 90 -1 133 -6 160 -18z"/>
<path d="M1199 6433 c-1 -5 -2 -147 -3 -318 -2 -413 11 -479 119 -586 92 -92
220 -128 450 -127 157 0 250 21 327 72 74 49 92 66 128 122 59 94 63 125 65
489 1 182 -1 336 -3 343 -3 9 -47 12 -176 12 l-172 0 0 -335 c-1 -293 -3 -340
-18 -373 -26 -56 -73 -84 -156 -90 -75 -5 -118 6 -158 42 -54 48 -55 55 -56
419 l0 337 -173 0 c-95 0 -174 -3 -174 -7z"/>
<path d="M2532 5928 l3 -512 155 -1 c85 0 164 1 175 3 20 3 20 11 19 500 -1
273 -2 503 -3 510 -1 9 -43 12 -176 12 l-175 0 2 -512z"/>
<path d="M3135 5930 c0 -280 2 -510 5 -511 3 -1 204 -2 447 -3 385 -1 442 1
446 14 2 8 3 65 3 125 l-1 110 -262 1 c-144 1 -267 3 -275 6 -10 4 -13 77 -12
387 l1 381 -176 0 -176 0 0 -510z"/>
<path d="M4202 5928 l3 -512 265 -1 c451 0 543 21 663 155 83 93 117 207 112
378 -9 268 -130 428 -361 477 -49 10 -151 14 -376 15 l-308 1 2 -513z m582
254 c78 -35 109 -108 109 -263 0 -143 -28 -210 -103 -250 -14 -7 -73 -15 -132
-17 l-108 -5 0 282 0 281 94 -4 c65 -3 108 -10 140 -24z"/>
<path d="M5430 5931 c0 -398 3 -510 13 -513 6 -2 221 -3 477 -3 l465 1 3 116
3 116 -296 0 c-163 -1 -299 2 -303 6 -4 4 -7 50 -7 102 l0 94 272 0 273 0 0
104 0 105 -252 0 c-139 0 -262 0 -274 0 -20 1 -21 6 -20 81 l1 80 292 0 292 0
3 83 c2 45 2 94 0 110 l-3 27 -470 0 -469 0 0 -509z"/>
<path d="M6584 5930 c0 -343 4 -510 11 -511 30 -3 312 -4 326 -1 13 3 15 30
15 208 l-1 204 31 0 c66 0 102 -26 159 -115 30 -47 55 -87 55 -89 0 -2 28 -50
63 -107 l63 -103 170 0 c94 -1 182 1 196 4 l27 5 -65 108 c-35 60 -64 111 -64
113 0 2 -15 27 -34 56 -50 77 -107 132 -154 147 -45 15 -47 19 -13 26 45 8
131 54 162 86 17 18 43 57 56 87 21 45 25 65 21 120 -7 101 -42 162 -123 215
-72 47 -142 55 -539 56 l-362 2 0 -511z m607 289 c39 -12 53 -29 63 -74 16
-78 -48 -115 -204 -120 -60 -2 -110 0 -111 4 -4 25 -3 184 1 191 3 4 14 9 25
12 36 7 189 -2 226 -13z"/>
<path d="M11442 5928 l3 -513 300 2 c338 1 416 11 515 64 74 39 139 107 179
188 17 33 29 61 26 61 -2 0 0 12 6 28 17 43 18 233 2 309 -30 147 -117 269
-228 319 -100 46 -165 53 -497 54 l-308 1 2 -513z m584 251 c78 -37 107 -107
107 -260 -1 -101 -13 -155 -45 -202 -33 -46 -73 -60 -190 -65 l-108 -5 0 281
0 281 95 -4 c72 -2 106 -9 141 -26z"/>
<path d="M12670 5928 l0 -513 477 0 478 1 3 115 3 116 -283 1 c-156 0 -292 1
-303 1 -20 1 -21 7 -20 101 l0 100 273 0 272 0 0 104 0 105 -252 0 c-139 0
-262 0 -273 0 -19 1 -20 8 -21 81 l0 80 293 0 293 0 0 110 0 110 -470 0 -470
0 0 -512z"/>
<path d="M13710 6435 c0 -2 20 -50 44 -107 24 -57 66 -157 94 -223 27 -66 88
-210 134 -320 47 -110 100 -237 119 -282 19 -45 41 -83 49 -85 8 -2 94 -3 190
-3 l175 1 24 49 c13 27 24 54 25 60 2 5 10 27 19 49 9 21 17 40 17 42 0 2 9
23 19 47 11 23 67 159 126 302 58 143 112 274 120 290 12 26 38 90 66 163 l9
22 -178 0 -178 0 -109 -317 c-161 -470 -142 -422 -153 -393 -5 14 -35 99 -66
190 -32 91 -70 201 -86 245 -15 44 -43 124 -62 177 l-33 98 -182 0 c-101 0
-183 -2 -183 -5z"/>
<path d="M15059 6433 c-4 -25 -3 -1013 1 -1014 3 -1 218 -2 478 -3 l472 -1 1
23 c1 29 1 144 0 181 l-1 28 -297 0 -298 0 -5 44 c-3 24 -3 70 -2 102 l4 57
269 0 269 0 1 28 c1 30 1 101 0 148 l-1 32 -197 1 c-109 0 -232 1 -273 1 l-75
0 2 32 c1 18 2 54 2 81 l1 47 290 0 c160 0 291 3 291 8 1 4 2 53 3 110 l2 102
-468 0 c-257 0 -469 -3 -469 -7z"/>
<path d="M16204 5928 l1 -512 447 -1 c391 0 448 2 449 15 1 20 1 177 0 211
l-1 26 -252 1 c-139 0 -262 1 -274 1 -21 1 -21 3 -20 369 1 202 0 375 -2 385
-4 15 -21 17 -177 17 l-172 0 1 -512z"/>
<path d="M18558 6433 c-6 -13 -2 -998 4 -1008 4 -6 78 -10 175 -9 l168 0 5
189 5 190 130 1 c167 1 226 10 300 45 67 31 90 49 123 96 53 75 69 206 37 302
-30 91 -121 167 -224 188 -44 9 -719 15 -723 6z m538 -214 c120 -30 110 -181
-14 -207 -26 -6 -75 -11 -109 -11 l-63 -1 0 115 0 115 71 0 c38 0 90 -5 115
-11z"/>
<path d="M19708 6433 c-3 -7 -2 -999 1 -1013 2 -8 945 -6 951 2 4 5 5 177 1
214 -1 9 -80 12 -283 12 -156 0 -291 1 -300 1 -16 1 -18 13 -18 101 l0 100
272 2 273 3 -1 100 0 100 -184 2 c-102 1 -224 2 -272 2 l-88 1 0 80 0 80 293
0 293 0 1 110 0 110 -468 0 c-257 0 -469 -3 -471 -7z"/>
<path d="M20860 6353 c-1 -97 -1 -860 0 -908 l0 -30 162 1 c90 1 169 2 176 3
9 1 12 49 12 206 l0 205 35 0 c40 0 81 -18 108 -48 10 -11 65 -98 122 -193
l105 -173 195 -1 c107 0 195 3 195 7 0 3 -23 46 -51 95 -29 48 -64 110 -79
138 -66 116 -138 188 -204 202 -26 6 -24 8 32 25 169 51 248 196 202 367 -13
48 -71 116 -121 141 -80 41 -153 48 -531 50 l-358 1 0 -88z m579 -126 c63 -10
91 -41 91 -100 0 -73 -58 -99 -232 -102 l-88 -2 0 103 c0 59 4 104 10 106 13
4 184 0 219 -5z"/>
</g>
</svg>
